<svg xmlns="http://www.w3.org/2000/svg" xmlns:xlink="http://www.w3.org/1999/xlink" width="500" zoomAndPan="magnify" viewBox="0 0 375 149.999998" height="200" preserveAspectRatio="xMidYMid meet" version="1.2"><defs><clipPath id="e945b65983"><path d="M 321 43 L 347 43 L 347 70 L 321 70 Z M 321 43 "/></clipPath><clipPath id="47892ef089"><path d="M 315.988281 47.304688 L 334.164062 30.503906 L 359.617188 58.042969 L 341.441406 74.84375 Z M 315.988281 47.304688 "/></clipPath><clipPath id="c24674b4e5"><path d="M 315.988281 47.304688 L 334.164062 30.503906 L 359.617188 58.042969 L 341.441406 74.84375 Z M 315.988281 47.304688 "/></clipPath><clipPath id="c2b7dcdfda"><path d="M 336 28 L 363 28 L 363 54 L 336 54 Z M 336 28 "/></clipPath><clipPath id="a60e55c032"><path d="M 331.109375 32.03125 L 349.285156 15.230469 L 374.738281 42.769531 L 356.5625 59.570312 Z M 331.109375 32.03125 "/></clipPath><clipPath id="269a6e0379"><path d="M 331.109375 32.03125 L 349.285156 15.230469 L 374.738281 42.769531 L 356.5625 59.570312 Z M 331.109375 32.03125 "/></clipPath></defs><g id="e0131bc3e9"><g clip-rule="nonzero" clip-path="url(#e945b65983)"><g clip-rule="nonzero" clip-path="url(#47892ef089)"><g clip-rule="nonzero" clip-path="url(#c24674b4e5)"><path style=" stroke:none;fill-rule:nonzero;fill:#4a4a4a;fill-opacity:1;" d="M 346.902344 44.285156 L 324.796875 43.304688 C 320.523438 43.113281 319.804688 51.429688 324.863281 51.570312 L 338.617188 51.941406 L 337.570312 65.78125 C 337.25 69.996094 345.46875 70.441406 345.703125 66.160156 Z M 346.902344 44.285156 "/></g></g></g><g clip-rule="nonzero" clip-path="url(#c2b7dcdfda)"><g clip-rule="nonzero" clip-path="url(#a60e55c032)"><g clip-rule="nonzero" clip-path="url(#269a6e0379)"><path style=" stroke:none;fill-rule:nonzero;fill:#ff6b35;fill-opacity:1;" d="M 362.023438 29.011719 L 339.917969 28.03125 C 335.648438 27.839844 334.925781 36.160156 339.984375 36.296875 L 353.742188 36.667969 L 352.691406 50.507812 C 352.371094 54.722656 360.589844 55.167969 360.824219 50.886719 Z M 362.023438 29.011719 "/></g></g></g><g style="fill:#1b2a41;fill-opacity:1;"><g transform="translate(5.9432, 86.401174)"><path style="stroke:none" d="M 0.59375 -5.421875 C 0.375 -6.273438 0.566406 -6.957031 1.171875 -7.46875 C 1.785156 -7.988281 2.457031 -8.25 3.1875 -8.25 C 3.738281 -8.25 4.222656 -8.085938 4.640625 -7.765625 C 5.066406 -7.453125 5.390625 -6.972656 5.609375 -6.328125 C 5.785156 -5.785156 6.175781 -5.335938 6.78125 -4.984375 C 7.394531 -4.640625 8.101562 -4.390625 8.90625 -4.234375 C 9.707031 -4.085938 10.519531 -4.015625 11.34375 -4.015625 C 12.988281 -4.015625 14.3125 -4.304688 15.3125 -4.890625 C 16.3125 -5.484375 16.8125 -6.238281 16.8125 -7.15625 C 16.8125 -7.789062 16.546875 -8.257812 16.015625 -8.5625 C 15.484375 -8.863281 14.785156 -9.078125 13.921875 -9.203125 C 13.054688 -9.328125 12.132812 -9.421875 11.15625 -9.484375 C 9.882812 -9.597656 8.632812 -9.742188 7.40625 -9.921875 C 6.175781 -10.109375 5.054688 -10.421875 4.046875 -10.859375 C 3.046875 -11.304688 2.242188 -11.960938 1.640625 -12.828125 C 1.035156 -13.691406 0.734375 -14.867188 0.734375 -16.359375 C 0.734375 -17.816406 1.15625 -19.09375 2 -20.1875 C 2.851562 -21.28125 4.050781 -22.128906 5.59375 -22.734375 C 7.144531 -23.335938 8.941406 -23.640625 10.984375 -23.640625 C 12.160156 -23.640625 13.429688 -23.523438 14.796875 -23.296875 C 16.171875 -23.078125 17.441406 -22.617188 18.609375 -21.921875 C 19.773438 -21.222656 20.632812 -20.144531 21.1875 -18.6875 C 21.394531 -18.070312 21.378906 -17.53125 21.140625 -17.0625 C 20.898438 -16.59375 20.539062 -16.234375 20.0625 -15.984375 C 19.59375 -15.742188 19.117188 -15.625 18.640625 -15.625 C 18.085938 -15.625 17.632812 -15.726562 17.28125 -15.9375 C 16.9375 -16.15625 16.644531 -16.523438 16.40625 -17.046875 C 16.132812 -17.679688 15.671875 -18.148438 15.015625 -18.453125 C 14.359375 -18.753906 13.65625 -18.941406 12.90625 -19.015625 C 12.164062 -19.097656 11.523438 -19.140625 10.984375 -19.140625 C 9.460938 -19.140625 8.238281 -18.878906 7.3125 -18.359375 C 6.382812 -17.847656 5.921875 -17.164062 5.921875 -16.3125 C 5.921875 -15.582031 6.160156 -15.085938 6.640625 -14.828125 C 7.128906 -14.566406 7.789062 -14.414062 8.625 -14.375 C 9.46875 -14.332031 10.40625 -14.25 11.4375 -14.125 C 12.707031 -13.96875 13.96875 -13.796875 15.21875 -13.609375 C 16.46875 -13.429688 17.609375 -13.125 18.640625 -12.6875 C 19.671875 -12.25 20.488281 -11.597656 21.09375 -10.734375 C 21.695312 -9.867188 22 -8.675781 22 -7.15625 C 22 -5.664062 21.550781 -4.34375 20.65625 -3.1875 C 19.757812 -2.03125 18.515625 -1.132812 16.921875 -0.5 C 15.328125 0.132812 13.46875 0.453125 11.34375 0.453125 C 10.40625 0.453125 9.378906 0.382812 8.265625 0.25 C 7.160156 0.113281 6.082031 -0.15625 5.03125 -0.5625 C 3.988281 -0.976562 3.070312 -1.570312 2.28125 -2.34375 C 1.488281 -3.125 0.925781 -4.148438 0.59375 -5.421875 Z M 0.59375 -5.421875 "/></g></g><g style="fill:#1b2a41;fill-opacity:1;"><g transform="translate(30.320262, 86.401174)"><path style="stroke:none" d="M 13.03125 -4.0625 C 13.914062 -4.0625 14.78125 -4.179688 15.625 -4.421875 C 16.476562 -4.660156 17.269531 -5.070312 18 -5.65625 C 18.695312 -6.289062 19.378906 -6.582031 20.046875 -6.53125 C 20.710938 -6.488281 21.265625 -6.25 21.703125 -5.8125 C 22.148438 -5.375 22.375 -4.828125 22.375 -4.171875 C 22.375 -3.515625 22.054688 -2.882812 21.421875 -2.28125 C 20.347656 -1.25 19.082031 -0.523438 17.625 -0.109375 C 16.175781 0.296875 14.691406 0.484375 13.171875 0.453125 C 10.796875 0.453125 8.703125 -0.03125 6.890625 -1 C 5.085938 -1.96875 3.675781 -3.316406 2.65625 -5.046875 C 1.644531 -6.785156 1.140625 -8.796875 1.140625 -11.078125 C 1.140625 -13.566406 1.625 -15.75 2.59375 -17.625 C 3.570312 -19.507812 4.945312 -20.984375 6.71875 -22.046875 C 8.5 -23.109375 10.601562 -23.640625 13.03125 -23.640625 C 15.457031 -23.640625 17.519531 -23.144531 19.21875 -22.15625 C 20.925781 -21.175781 22.226562 -19.796875 23.125 -18.015625 C 24.019531 -16.242188 24.46875 -14.171875 24.46875 -11.796875 C 24.46875 -11.035156 24.316406 -10.390625 24.015625 -9.859375 C 23.710938 -9.328125 22.90625 -9.0625 21.59375 -9.0625 L 6.421875 -9.0625 C 6.847656 -7.570312 7.648438 -6.363281 8.828125 -5.4375 C 10.015625 -4.519531 11.414062 -4.0625 13.03125 -4.0625 Z M 13.078125 -19.140625 C 11.316406 -19.140625 9.84375 -18.582031 8.65625 -17.46875 C 7.46875 -16.363281 6.707031 -14.914062 6.375 -13.125 L 19.640625 -13.125 C 19.484375 -14.914062 18.890625 -16.363281 17.859375 -17.46875 C 16.828125 -18.582031 15.234375 -19.140625 13.078125 -19.140625 Z M 13.078125 -19.140625 "/></g></g><g style="fill:#1b2a41;fill-opacity:1;"><g transform="translate(58.524741, 86.401174)"><path style="stroke:none" d="M 12.296875 -23.1875 C 13.117188 -23.1875 13.769531 -23.007812 14.25 -22.65625 C 14.738281 -22.3125 14.984375 -21.742188 14.984375 -20.953125 C 14.984375 -20.222656 14.738281 -19.644531 14.25 -19.21875 C 13.769531 -18.800781 13.117188 -18.59375 12.296875 -18.59375 C 10.390625 -18.59375 9.046875 -17.90625 8.265625 -16.53125 C 7.492188 -15.164062 7.109375 -13.316406 7.109375 -10.984375 L 7.109375 -2.328125 C 7.109375 -1.660156 6.863281 -1.101562 6.375 -0.65625 C 5.894531 -0.21875 5.304688 0 4.609375 0 C 3.816406 0 3.175781 -0.21875 2.6875 -0.65625 C 2.195312 -1.101562 1.953125 -1.660156 1.953125 -2.328125 L 1.953125 -20.875 C 1.953125 -21.601562 2.234375 -22.171875 2.796875 -22.578125 C 3.359375 -22.984375 3.960938 -23.1875 4.609375 -23.1875 C 5.242188 -23.1875 5.816406 -22.988281 6.328125 -22.59375 C 6.847656 -22.195312 7.109375 -21.625 7.109375 -20.875 L 7.109375 -20.59375 C 7.773438 -21.476562 8.546875 -22.128906 9.421875 -22.546875 C 10.304688 -22.972656 11.265625 -23.1875 12.296875 -23.1875 Z M 12.296875 -23.1875 "/></g></g><g style="fill:#1b2a41;fill-opacity:1;"><g transform="translate(73.880006, 86.401174)"><path style="stroke:none" d="M 0.046875 -19.78125 C -0.160156 -20.382812 -0.171875 -20.941406 0.015625 -21.453125 C 0.210938 -21.972656 0.546875 -22.390625 1.015625 -22.703125 C 1.492188 -23.023438 1.988281 -23.1875 2.5 -23.1875 C 3.050781 -23.1875 3.53125 -23.039062 3.9375 -22.75 C 4.351562 -22.46875 4.664062 -22.082031 4.875 -21.59375 L 11.84375 -7.46875 L 18.8125 -21.640625 C 19.09375 -22.191406 19.453125 -22.585938 19.890625 -22.828125 C 20.328125 -23.066406 20.789062 -23.1875 21.28125 -23.1875 C 21.820312 -23.1875 22.3125 -23.039062 22.75 -22.75 C 23.195312 -22.46875 23.503906 -22.078125 23.671875 -21.578125 C 23.835938 -21.078125 23.753906 -20.488281 23.421875 -19.8125 L 14.125 -0.953125 C 13.914062 -0.554688 13.597656 -0.222656 13.171875 0.046875 C 12.742188 0.316406 12.269531 0.453125 11.75 0.453125 C 10.75 0.453125 9.992188 0.015625 9.484375 -0.859375 Z M 0.046875 -19.78125 "/></g></g><g style="fill:#1b2a41;fill-opacity:1;"><g transform="translate(99.168351, 86.401174)"><path style="stroke:none" d="M 6.828125 -26.609375 C 6.828125 -25.847656 6.546875 -25.273438 5.984375 -24.890625 C 5.429688 -24.515625 4.832031 -24.328125 4.1875 -24.328125 C 3.519531 -24.328125 2.910156 -24.515625 2.359375 -24.890625 C 1.816406 -25.273438 1.546875 -25.847656 1.546875 -26.609375 L 1.546875 -27.203125 C 1.546875 -27.992188 1.816406 -28.570312 2.359375 -28.9375 C 2.910156 -29.300781 3.519531 -29.484375 4.1875 -29.484375 C 4.832031 -29.484375 5.429688 -29.300781 5.984375 -28.9375 C 6.546875 -28.570312 6.828125 -27.992188 6.828125 -27.203125 Z M 1.59375 -20.953125 C 1.59375 -21.679688 1.875 -22.234375 2.4375 -22.609375 C 3 -22.992188 3.582031 -23.1875 4.1875 -23.1875 C 4.832031 -23.1875 5.425781 -22.992188 5.96875 -22.609375 C 6.507812 -22.234375 6.78125 -21.695312 6.78125 -21 L 6.78125 -2.234375 C 6.78125 -1.472656 6.507812 -0.910156 5.96875 -0.546875 C 5.425781 -0.179688 4.832031 0 4.1875 0 C 3.582031 0 3 -0.179688 2.4375 -0.546875 C 1.875 -0.910156 1.59375 -1.472656 1.59375 -2.234375 Z M 1.59375 -20.953125 "/></g></g><g style="fill:#1b2a41;fill-opacity:1;"><g transform="translate(108.372402, 86.401174)"><path style="stroke:none" d="M 18 -16.953125 C 17.300781 -17.765625 16.476562 -18.335938 15.53125 -18.671875 C 14.59375 -19.015625 13.664062 -19.1875 12.75 -19.1875 C 10.75 -19.1875 9.140625 -18.492188 7.921875 -17.109375 C 6.710938 -15.722656 6.109375 -13.863281 6.109375 -11.53125 C 6.109375 -9.28125 6.738281 -7.472656 8 -6.109375 C 9.257812 -4.742188 10.90625 -4.0625 12.9375 -4.0625 C 13.851562 -4.0625 14.78125 -4.21875 15.71875 -4.53125 C 16.65625 -4.851562 17.488281 -5.378906 18.21875 -6.109375 C 18.894531 -6.773438 19.554688 -7.125 20.203125 -7.15625 C 20.859375 -7.1875 21.398438 -7.003906 21.828125 -6.609375 C 22.253906 -6.210938 22.488281 -5.703125 22.53125 -5.078125 C 22.570312 -4.453125 22.304688 -3.820312 21.734375 -3.1875 C 20.546875 -1.882812 19.1875 -0.953125 17.65625 -0.390625 C 16.125 0.171875 14.535156 0.453125 12.890625 0.453125 C 10.492188 0.453125 8.390625 -0.046875 6.578125 -1.046875 C 4.773438 -2.046875 3.367188 -3.441406 2.359375 -5.234375 C 1.359375 -7.023438 0.859375 -9.109375 0.859375 -11.484375 C 0.859375 -13.941406 1.351562 -16.082031 2.34375 -17.90625 C 3.332031 -19.726562 4.722656 -21.140625 6.515625 -22.140625 C 8.304688 -23.140625 10.382812 -23.640625 12.75 -23.640625 C 14.425781 -23.640625 15.984375 -23.378906 17.421875 -22.859375 C 18.867188 -22.347656 20.203125 -21.378906 21.421875 -19.953125 C 21.960938 -19.316406 22.191406 -18.691406 22.109375 -18.078125 C 22.035156 -17.472656 21.769531 -16.972656 21.3125 -16.578125 C 20.863281 -16.191406 20.328125 -16.003906 19.703125 -16.015625 C 19.078125 -16.023438 18.507812 -16.335938 18 -16.953125 Z M 18 -16.953125 "/></g></g><g style="fill:#1b2a41;fill-opacity:1;"><g transform="translate(132.886155, 86.401174)"><path style="stroke:none" d="M 13.03125 -4.0625 C 13.914062 -4.0625 14.78125 -4.179688 15.625 -4.421875 C 16.476562 -4.660156 17.269531 -5.070312 18 -5.65625 C 18.695312 -6.289062 19.378906 -6.582031 20.046875 -6.53125 C 20.710938 -6.488281 21.265625 -6.25 21.703125 -5.8125 C 22.148438 -5.375 22.375 -4.828125 22.375 -4.171875 C 22.375 -3.515625 22.054688 -2.882812 21.421875 -2.28125 C 20.347656 -1.25 19.082031 -0.523438 17.625 -0.109375 C 16.175781 0.296875 14.691406 0.484375 13.171875 0.453125 C 10.796875 0.453125 8.703125 -0.03125 6.890625 -1 C 5.085938 -1.96875 3.675781 -3.316406 2.65625 -5.046875 C 1.644531 -6.785156 1.140625 -8.796875 1.140625 -11.078125 C 1.140625 -13.566406 1.625 -15.75 2.59375 -17.625 C 3.570312 -19.507812 4.945312 -20.984375 6.71875 -22.046875 C 8.5 -23.109375 10.601562 -23.640625 13.03125 -23.640625 C 15.457031 -23.640625 17.519531 -23.144531 19.21875 -22.15625 C 20.925781 -21.175781 22.226562 -19.796875 23.125 -18.015625 C 24.019531 -16.242188 24.46875 -14.171875 24.46875 -11.796875 C 24.46875 -11.035156 24.316406 -10.390625 24.015625 -9.859375 C 23.710938 -9.328125 22.90625 -9.0625 21.59375 -9.0625 L 6.421875 -9.0625 C 6.847656 -7.570312 7.648438 -6.363281 8.828125 -5.4375 C 10.015625 -4.519531 11.414062 -4.0625 13.03125 -4.0625 Z M 13.078125 -19.140625 C 11.316406 -19.140625 9.84375 -18.582031 8.65625 -17.46875 C 7.46875 -16.363281 6.707031 -14.914062 6.375 -13.125 L 19.640625 -13.125 C 19.484375 -14.914062 18.890625 -16.363281 17.859375 -17.46875 C 16.828125 -18.582031 15.234375 -19.140625 13.078125 -19.140625 Z M 13.078125 -19.140625 "/></g></g><g style="fill:#1b2a41;fill-opacity:1;"><g transform="translate(161.090635, 86.401174)"><path style="stroke:none" d=""/></g></g><g style="fill:#1b2a41;fill-opacity:1;"><g transform="translate(173.529765, 86.401174)"><path style="stroke:none" d="M 12.296875 0.453125 C 10.898438 0.453125 9.503906 0.300781 8.109375 0 C 6.710938 -0.300781 5.425781 -0.789062 4.25 -1.46875 C 3.082031 -2.15625 2.140625 -3.09375 1.421875 -4.28125 C 0.710938 -5.46875 0.359375 -6.972656 0.359375 -8.796875 C 0.359375 -10.097656 0.675781 -11.28125 1.3125 -12.34375 C 1.957031 -13.40625 2.84375 -14.226562 3.96875 -14.8125 C 2.957031 -15.476562 2.203125 -16.359375 1.703125 -17.453125 C 1.203125 -18.546875 0.953125 -19.65625 0.953125 -20.78125 C 0.953125 -22.320312 1.285156 -23.640625 1.953125 -24.734375 C 2.628906 -25.828125 3.519531 -26.722656 4.625 -27.421875 C 5.726562 -28.128906 6.957031 -28.648438 8.3125 -28.984375 C 9.664062 -29.316406 11.023438 -29.484375 12.390625 -29.484375 C 13.785156 -29.484375 15.160156 -29.34375 16.515625 -29.0625 C 17.867188 -28.789062 19.09375 -28.34375 20.1875 -27.71875 C 21.28125 -27.101562 22.148438 -26.300781 22.796875 -25.3125 C 23.453125 -24.320312 23.78125 -23.097656 23.78125 -21.640625 C 23.78125 -20.878906 23.515625 -20.316406 22.984375 -19.953125 C 22.453125 -19.585938 21.867188 -19.40625 21.234375 -19.40625 C 20.597656 -19.40625 20.019531 -19.585938 19.5 -19.953125 C 18.976562 -20.316406 18.71875 -20.878906 18.71875 -21.640625 C 18.71875 -22.492188 18.40625 -23.15625 17.78125 -23.625 C 17.164062 -24.09375 16.378906 -24.429688 15.421875 -24.640625 C 14.460938 -24.859375 13.453125 -24.96875 12.390625 -24.96875 C 11.328125 -24.96875 10.304688 -24.804688 9.328125 -24.484375 C 8.359375 -24.171875 7.570312 -23.703125 6.96875 -23.078125 C 6.363281 -22.453125 6.0625 -21.671875 6.0625 -20.734375 C 6.0625 -19.734375 6.359375 -18.941406 6.953125 -18.359375 C 7.546875 -17.785156 8.316406 -17.382812 9.265625 -17.15625 C 10.222656 -16.925781 11.25 -16.8125 12.34375 -16.8125 L 24.6875 -16.8125 C 25.476562 -16.8125 26.078125 -16.578125 26.484375 -16.109375 C 26.898438 -15.640625 27.109375 -15.097656 27.109375 -14.484375 C 27.109375 -13.941406 26.910156 -13.441406 26.515625 -12.984375 C 26.117188 -12.523438 25.507812 -12.296875 24.6875 -12.296875 L 24.015625 -12.296875 L 24.015625 -8.75 C 24.015625 -6.988281 23.6875 -5.515625 23.03125 -4.328125 C 22.375 -3.140625 21.488281 -2.195312 20.375 -1.5 C 19.269531 -0.800781 18.019531 -0.300781 16.625 0 C 15.226562 0.300781 13.785156 0.453125 12.296875 0.453125 Z M 12.34375 -12.296875 C 11.1875 -12.296875 10.078125 -12.210938 9.015625 -12.046875 C 7.953125 -11.878906 7.078125 -11.546875 6.390625 -11.046875 C 5.710938 -10.546875 5.375 -9.765625 5.375 -8.703125 C 5.375 -7.515625 5.753906 -6.570312 6.515625 -5.875 C 7.273438 -5.175781 8.191406 -4.679688 9.265625 -4.390625 C 10.347656 -4.109375 11.375 -3.96875 12.34375 -3.96875 C 13.320312 -3.96875 14.328125 -4.101562 15.359375 -4.375 C 16.390625 -4.644531 17.257812 -5.128906 17.96875 -5.828125 C 18.6875 -6.523438 19.046875 -7.484375 19.046875 -8.703125 L 19.046875 -12.296875 Z M 12.34375 -12.296875 "/></g></g><g style="fill:#1b2a41;fill-opacity:1;"><g transform="translate(201.597554, 86.401174)"><path style="stroke:none" d=""/></g></g><g style="fill:#1b2a41;fill-opacity:1;"><g transform="translate(214.036684, 86.401174)"><path style="stroke:none" d="M 0.59375 -5.421875 C 0.375 -6.273438 0.566406 -6.957031 1.171875 -7.46875 C 1.785156 -7.988281 2.457031 -8.25 3.1875 -8.25 C 3.738281 -8.25 4.222656 -8.085938 4.640625 -7.765625 C 5.066406 -7.453125 5.390625 -6.972656 5.609375 -6.328125 C 5.785156 -5.785156 6.175781 -5.335938 6.78125 -4.984375 C 7.394531 -4.640625 8.101562 -4.390625 8.90625 -4.234375 C 9.707031 -4.085938 10.519531 -4.015625 11.34375 -4.015625 C 12.988281 -4.015625 14.3125 -4.304688 15.3125 -4.890625 C 16.3125 -5.484375 16.8125 -6.238281 16.8125 -7.15625 C 16.8125 -7.789062 16.546875 -8.257812 16.015625 -8.5625 C 15.484375 -8.863281 14.785156 -9.078125 13.921875 -9.203125 C 13.054688 -9.328125 12.132812 -9.421875 11.15625 -9.484375 C 9.882812 -9.597656 8.632812 -9.742188 7.40625 -9.921875 C 6.175781 -10.109375 5.054688 -10.421875 4.046875 -10.859375 C 3.046875 -11.304688 2.242188 -11.960938 1.640625 -12.828125 C 1.035156 -13.691406 0.734375 -14.867188 0.734375 -16.359375 C 0.734375 -17.816406 1.15625 -19.09375 2 -20.1875 C 2.851562 -21.28125 4.050781 -22.128906 5.59375 -22.734375 C 7.144531 -23.335938 8.941406 -23.640625 10.984375 -23.640625 C 12.160156 -23.640625 13.429688 -23.523438 14.796875 -23.296875 C 16.171875 -23.078125 17.441406 -22.617188 18.609375 -21.921875 C 19.773438 -21.222656 20.632812 -20.144531 21.1875 -18.6875 C 21.394531 -18.070312 21.378906 -17.53125 21.140625 -17.0625 C 20.898438 -16.59375 20.539062 -16.234375 20.0625 -15.984375 C 19.59375 -15.742188 19.117188 -15.625 18.640625 -15.625 C 18.085938 -15.625 17.632812 -15.726562 17.28125 -15.9375 C 16.9375 -16.15625 16.644531 -16.523438 16.40625 -17.046875 C 16.132812 -17.679688 15.671875 -18.148438 15.015625 -18.453125 C 14.359375 -18.753906 13.65625 -18.941406 12.90625 -19.015625 C 12.164062 -19.097656 11.523438 -19.140625 10.984375 -19.140625 C 9.460938 -19.140625 8.238281 -18.878906 7.3125 -18.359375 C 6.382812 -17.847656 5.921875 -17.164062 5.921875 -16.3125 C 5.921875 -15.582031 6.160156 -15.085938 6.640625 -14.828125 C 7.128906 -14.566406 7.789062 -14.414062 8.625 -14.375 C 9.46875 -14.332031 10.40625 -14.25 11.4375 -14.125 C 12.707031 -13.96875 13.96875 -13.796875 15.21875 -13.609375 C 16.46875 -13.429688 17.609375 -13.125 18.640625 -12.6875 C 19.671875 -12.25 20.488281 -11.597656 21.09375 -10.734375 C 21.695312 -9.867188 22 -8.675781 22 -7.15625 C 22 -5.664062 21.550781 -4.34375 20.65625 -3.1875 C 19.757812 -2.03125 18.515625 -1.132812 16.921875 -0.5 C 15.328125 0.132812 13.46875 0.453125 11.34375 0.453125 C 10.40625 0.453125 9.378906 0.382812 8.265625 0.25 C 7.160156 0.113281 6.082031 -0.15625 5.03125 -0.5625 C 3.988281 -0.976562 3.070312 -1.570312 2.28125 -2.34375 C 1.488281 -3.125 0.925781 -4.148438 0.59375 -5.421875 Z M 0.59375 -5.421875 "/></g></g><g style="fill:#1b2a41;fill-opacity:1;"><g transform="translate(238.413746, 86.401174)"><path style="stroke:none" d="M 21.1875 -23.1875 C 21.976562 -23.1875 22.609375 -22.96875 23.078125 -22.53125 C 23.546875 -22.09375 23.78125 -21.523438 23.78125 -20.828125 L 23.78125 -2.375 C 23.78125 -1.675781 23.546875 -1.101562 23.078125 -0.65625 C 22.609375 -0.21875 21.976562 0 21.1875 0 C 20.425781 0 19.832031 -0.171875 19.40625 -0.515625 C 18.976562 -0.867188 18.722656 -1.332031 18.640625 -1.90625 C 17.609375 -1.09375 16.453125 -0.492188 15.171875 -0.109375 C 13.898438 0.265625 12.6875 0.453125 11.53125 0.453125 C 9.34375 0.453125 7.453125 -0.046875 5.859375 -1.046875 C 4.265625 -2.046875 3.039062 -3.457031 2.1875 -5.28125 C 1.332031 -7.101562 0.90625 -9.226562 0.90625 -11.65625 C 0.90625 -14.03125 1.375 -16.113281 2.3125 -17.90625 C 3.257812 -19.695312 4.578125 -21.097656 6.265625 -22.109375 C 7.953125 -23.128906 9.90625 -23.640625 12.125 -23.640625 C 13.09375 -23.640625 14.164062 -23.457031 15.34375 -23.09375 C 16.53125 -22.726562 17.628906 -22.15625 18.640625 -21.375 C 18.753906 -21.914062 19.023438 -22.351562 19.453125 -22.6875 C 19.878906 -23.019531 20.457031 -23.1875 21.1875 -23.1875 Z M 12.078125 -4.140625 C 13.410156 -4.140625 14.695312 -4.4375 15.9375 -5.03125 C 17.1875 -5.625 18.070312 -6.5 18.59375 -7.65625 L 18.59375 -15.53125 C 18.007812 -16.65625 17.140625 -17.519531 15.984375 -18.125 C 14.835938 -18.738281 13.671875 -19.046875 12.484375 -19.046875 C 10.566406 -19.046875 9.023438 -18.347656 7.859375 -16.953125 C 6.691406 -15.554688 6.109375 -13.78125 6.109375 -11.625 C 6.109375 -9.375 6.65625 -7.5625 7.75 -6.1875 C 8.84375 -4.820312 10.285156 -4.140625 12.078125 -4.140625 Z M 12.078125 -4.140625 "/></g></g><g style="fill:#1b2a41;fill-opacity:1;"><g transform="translate(266.48155, 86.401174)"><path style="stroke:none" d="M 6.78125 -2.28125 C 6.78125 -1.664062 6.53125 -1.128906 6.03125 -0.671875 C 5.53125 -0.222656 4.914062 0 4.1875 0 C 3.425781 0 2.800781 -0.222656 2.3125 -0.671875 C 1.832031 -1.128906 1.59375 -1.664062 1.59375 -2.28125 L 1.59375 -27.203125 C 1.59375 -27.804688 1.832031 -28.335938 2.3125 -28.796875 C 2.800781 -29.253906 3.425781 -29.484375 4.1875 -29.484375 C 4.914062 -29.484375 5.53125 -29.253906 6.03125 -28.796875 C 6.53125 -28.335938 6.78125 -27.804688 6.78125 -27.203125 Z M 6.78125 -2.28125 "/></g></g><g style="fill:#1b2a41;fill-opacity:1;"><g transform="translate(275.685573, 86.401174)"><path style="stroke:none" d="M 13.03125 -4.0625 C 13.914062 -4.0625 14.78125 -4.179688 15.625 -4.421875 C 16.476562 -4.660156 17.269531 -5.070312 18 -5.65625 C 18.695312 -6.289062 19.378906 -6.582031 20.046875 -6.53125 C 20.710938 -6.488281 21.265625 -6.25 21.703125 -5.8125 C 22.148438 -5.375 22.375 -4.828125 22.375 -4.171875 C 22.375 -3.515625 22.054688 -2.882812 21.421875 -2.28125 C 20.347656 -1.25 19.082031 -0.523438 17.625 -0.109375 C 16.175781 0.296875 14.691406 0.484375 13.171875 0.453125 C 10.796875 0.453125 8.703125 -0.03125 6.890625 -1 C 5.085938 -1.96875 3.675781 -3.316406 2.65625 -5.046875 C 1.644531 -6.785156 1.140625 -8.796875 1.140625 -11.078125 C 1.140625 -13.566406 1.625 -15.75 2.59375 -17.625 C 3.570312 -19.507812 4.945312 -20.984375 6.71875 -22.046875 C 8.5 -23.109375 10.601562 -23.640625 13.03125 -23.640625 C 15.457031 -23.640625 17.519531 -23.144531 19.21875 -22.15625 C 20.925781 -21.175781 22.226562 -19.796875 23.125 -18.015625 C 24.019531 -16.242188 24.46875 -14.171875 24.46875 -11.796875 C 24.46875 -11.035156 24.316406 -10.390625 24.015625 -9.859375 C 23.710938 -9.328125 22.90625 -9.0625 21.59375 -9.0625 L 6.421875 -9.0625 C 6.847656 -7.570312 7.648438 -6.363281 8.828125 -5.4375 C 10.015625 -4.519531 11.414062 -4.0625 13.03125 -4.0625 Z M 13.078125 -19.140625 C 11.316406 -19.140625 9.84375 -18.582031 8.65625 -17.46875 C 7.46875 -16.363281 6.707031 -14.914062 6.375 -13.125 L 19.640625 -13.125 C 19.484375 -14.914062 18.890625 -16.363281 17.859375 -17.46875 C 16.828125 -18.582031 15.234375 -19.140625 13.078125 -19.140625 Z M 13.078125 -19.140625 "/></g></g><g style="fill:#1b2a41;fill-opacity:1;"><g transform="translate(303.890068, 86.401174)"><path style="stroke:none" d="M 0.59375 -5.421875 C 0.375 -6.273438 0.566406 -6.957031 1.171875 -7.46875 C 1.785156 -7.988281 2.457031 -8.25 3.1875 -8.25 C 3.738281 -8.25 4.222656 -8.085938 4.640625 -7.765625 C 5.066406 -7.453125 5.390625 -6.972656 5.609375 -6.328125 C 5.785156 -5.785156 6.175781 -5.335938 6.78125 -4.984375 C 7.394531 -4.640625 8.101562 -4.390625 8.90625 -4.234375 C 9.707031 -4.085938 10.519531 -4.015625 11.34375 -4.015625 C 12.988281 -4.015625 14.3125 -4.304688 15.3125 -4.890625 C 16.3125 -5.484375 16.8125 -6.238281 16.8125 -7.15625 C 16.8125 -7.789062 16.546875 -8.257812 16.015625 -8.5625 C 15.484375 -8.863281 14.785156 -9.078125 13.921875 -9.203125 C 13.054688 -9.328125 12.132812 -9.421875 11.15625 -9.484375 C 9.882812 -9.597656 8.632812 -9.742188 7.40625 -9.921875 C 6.175781 -10.109375 5.054688 -10.421875 4.046875 -10.859375 C 3.046875 -11.304688 2.242188 -11.960938 1.640625 -12.828125 C 1.035156 -13.691406 0.734375 -14.867188 0.734375 -16.359375 C 0.734375 -17.816406 1.15625 -19.09375 2 -20.1875 C 2.851562 -21.28125 4.050781 -22.128906 5.59375 -22.734375 C 7.144531 -23.335938 8.941406 -23.640625 10.984375 -23.640625 C 12.160156 -23.640625 13.429688 -23.523438 14.796875 -23.296875 C 16.171875 -23.078125 17.441406 -22.617188 18.609375 -21.921875 C 19.773438 -21.222656 20.632812 -20.144531 21.1875 -18.6875 C 21.394531 -18.070312 21.378906 -17.53125 21.140625 -17.0625 C 20.898438 -16.59375 20.539062 -16.234375 20.0625 -15.984375 C 19.59375 -15.742188 19.117188 -15.625 18.640625 -15.625 C 18.085938 -15.625 17.632812 -15.726562 17.28125 -15.9375 C 16.9375 -16.15625 16.644531 -16.523438 16.40625 -17.046875 C 16.132812 -17.679688 15.671875 -18.148438 15.015625 -18.453125 C 14.359375 -18.753906 13.65625 -18.941406 12.90625 -19.015625 C 12.164062 -19.097656 11.523438 -19.140625 10.984375 -19.140625 C 9.460938 -19.140625 8.238281 -18.878906 7.3125 -18.359375 C 6.382812 -17.847656 5.921875 -17.164062 5.921875 -16.3125 C 5.921875 -15.582031 6.160156 -15.085938 6.640625 -14.828125 C 7.128906 -14.566406 7.789062 -14.414062 8.625 -14.375 C 9.46875 -14.332031 10.40625 -14.25 11.4375 -14.125 C 12.707031 -13.96875 13.96875 -13.796875 15.21875 -13.609375 C 16.46875 -13.429688 17.609375 -13.125 18.640625 -12.6875 C 19.671875 -12.25 20.488281 -11.597656 21.09375 -10.734375 C 21.695312 -9.867188 22 -8.675781 22 -7.15625 C 22 -5.664062 21.550781 -4.34375 20.65625 -3.1875 C 19.757812 -2.03125 18.515625 -1.132812 16.921875 -0.5 C 15.328125 0.132812 13.46875 0.453125 11.34375 0.453125 C 10.40625 0.453125 9.378906 0.382812 8.265625 0.25 C 7.160156 0.113281 6.082031 -0.15625 5.03125 -0.5625 C 3.988281 -0.976562 3.070312 -1.570312 2.28125 -2.34375 C 1.488281 -3.125 0.925781 -4.148438 0.59375 -5.421875 Z M 0.59375 -5.421875 "/></g></g><g style="fill:#333333;fill-opacity:1;"><g transform="translate(138.558069, 106.899841)"><path style="stroke:none" d="M 1.328125 -6.71875 C 1.328125 -8.101562 1.601562 -9.3125 2.15625 -10.34375 C 2.707031 -11.382812 3.472656 -12.1875 4.453125 -12.75 C 5.429688 -13.3125 6.550781 -13.59375 7.8125 -13.59375 C 9.226562 -13.59375 10.425781 -13.242188 11.40625 -12.546875 C 12.394531 -11.859375 13.085938 -10.976562 13.484375 -9.90625 L 13.484375 -13.40625 L 14.59375 -13.40625 L 14.59375 0 L 13.484375 0 L 13.484375 -3.53125 C 13.085938 -2.445312 12.390625 -1.550781 11.390625 -0.84375 C 10.398438 -0.144531 9.207031 0.203125 7.8125 0.203125 C 6.550781 0.203125 5.429688 -0.078125 4.453125 -0.640625 C 3.472656 -1.210938 2.707031 -2.019531 2.15625 -3.0625 C 1.601562 -4.113281 1.328125 -5.332031 1.328125 -6.71875 Z M 13.484375 -6.71875 C 13.484375 -7.882812 13.238281 -8.914062 12.75 -9.8125 C 12.269531 -10.71875 11.609375 -11.410156 10.765625 -11.890625 C 9.929688 -12.378906 8.992188 -12.625 7.953125 -12.625 C 6.867188 -12.625 5.914062 -12.390625 5.09375 -11.921875 C 4.269531 -11.453125 3.625 -10.769531 3.15625 -9.875 C 2.695312 -8.988281 2.46875 -7.9375 2.46875 -6.71875 C 2.46875 -5.5 2.695312 -4.441406 3.15625 -3.546875 C 3.625 -2.660156 4.269531 -1.976562 5.09375 -1.5 C 5.925781 -1.03125 6.878906 -0.796875 7.953125 -0.796875 C 8.992188 -0.796875 9.9375 -1.035156 10.78125 -1.515625 C 11.632812 -2.003906 12.296875 -2.695312 12.765625 -3.59375 C 13.242188 -4.488281 13.484375 -5.53125 13.484375 -6.71875 Z M 13.484375 -6.71875 "/></g></g><g style="fill:#333333;fill-opacity:1;"><g transform="translate(154.245421, 106.899841)"><path style="stroke:none" d="M 3.140625 -9.875 C 3.515625 -10.96875 4.195312 -11.859375 5.1875 -12.546875 C 6.1875 -13.242188 7.394531 -13.59375 8.8125 -13.59375 C 10.070312 -13.59375 11.191406 -13.3125 12.171875 -12.75 C 13.148438 -12.1875 13.914062 -11.382812 14.46875 -10.34375 C 15.019531 -9.3125 15.296875 -8.101562 15.296875 -6.71875 C 15.296875 -5.332031 15.019531 -4.113281 14.46875 -3.0625 C 13.914062 -2.019531 13.148438 -1.210938 12.171875 -0.640625 C 11.191406 -0.078125 10.070312 0.203125 8.8125 0.203125 C 7.414062 0.203125 6.21875 -0.144531 5.21875 -0.84375 C 4.226562 -1.550781 3.535156 -2.441406 3.140625 -3.515625 L 3.140625 6.328125 L 2.03125 6.328125 L 2.03125 -13.40625 L 3.140625 -13.40625 Z M 14.15625 -6.71875 C 14.15625 -7.9375 13.921875 -8.988281 13.453125 -9.875 C 12.992188 -10.769531 12.347656 -11.453125 11.515625 -11.921875 C 10.691406 -12.390625 9.734375 -12.625 8.640625 -12.625 C 7.609375 -12.625 6.671875 -12.378906 5.828125 -11.890625 C 4.984375 -11.410156 4.320312 -10.71875 3.84375 -9.8125 C 3.375 -8.914062 3.140625 -7.882812 3.140625 -6.71875 C 3.140625 -5.53125 3.375 -4.488281 3.84375 -3.59375 C 4.320312 -2.695312 4.984375 -2.003906 5.828125 -1.515625 C 6.671875 -1.035156 7.609375 -0.796875 8.640625 -0.796875 C 9.734375 -0.796875 10.691406 -1.03125 11.515625 -1.5 C 12.347656 -1.976562 12.992188 -2.660156 13.453125 -3.546875 C 13.921875 -4.441406 14.15625 -5.5 14.15625 -6.71875 Z M 14.15625 -6.71875 "/></g></g><g style="fill:#333333;fill-opacity:1;"><g transform="translate(169.932774, 106.899841)"><path style="stroke:none" d="M 3.140625 -9.875 C 3.515625 -10.96875 4.195312 -11.859375 5.1875 -12.546875 C 6.1875 -13.242188 7.394531 -13.59375 8.8125 -13.59375 C 10.070312 -13.59375 11.191406 -13.3125 12.171875 -12.75 C 13.148438 -12.1875 13.914062 -11.382812 14.46875 -10.34375 C 15.019531 -9.3125 15.296875 -8.101562 15.296875 -6.71875 C 15.296875 -5.332031 15.019531 -4.113281 14.46875 -3.0625 C 13.914062 -2.019531 13.148438 -1.210938 12.171875 -0.640625 C 11.191406 -0.078125 10.070312 0.203125 8.8125 0.203125 C 7.414062 0.203125 6.21875 -0.144531 5.21875 -0.84375 C 4.226562 -1.550781 3.535156 -2.441406 3.140625 -3.515625 L 3.140625 6.328125 L 2.03125 6.328125 L 2.03125 -13.40625 L 3.140625 -13.40625 Z M 14.15625 -6.71875 C 14.15625 -7.9375 13.921875 -8.988281 13.453125 -9.875 C 12.992188 -10.769531 12.347656 -11.453125 11.515625 -11.921875 C 10.691406 -12.390625 9.734375 -12.625 8.640625 -12.625 C 7.609375 -12.625 6.671875 -12.378906 5.828125 -11.890625 C 4.984375 -11.410156 4.320312 -10.71875 3.84375 -9.8125 C 3.375 -8.914062 3.140625 -7.882812 3.140625 -6.71875 C 3.140625 -5.53125 3.375 -4.488281 3.84375 -3.59375 C 4.320312 -2.695312 4.984375 -2.003906 5.828125 -1.515625 C 6.671875 -1.035156 7.609375 -0.796875 8.640625 -0.796875 C 9.734375 -0.796875 10.691406 -1.03125 11.515625 -1.5 C 12.347656 -1.976562 12.992188 -2.660156 13.453125 -3.546875 C 13.921875 -4.441406 14.15625 -5.5 14.15625 -6.71875 Z M 14.15625 -6.71875 "/></g></g><g style="fill:#333333;fill-opacity:1;"><g transform="translate(185.620127, 106.899841)"><path style="stroke:none" d="M 3.140625 -18.28125 L 3.140625 0 L 2.03125 0 L 2.03125 -18.28125 Z M 3.140625 -18.28125 "/></g></g><g style="fill:#333333;fill-opacity:1;"><g transform="translate(189.869054, 106.899841)"><path style="stroke:none" d="M 2.59375 -16.40625 C 2.332031 -16.40625 2.109375 -16.488281 1.921875 -16.65625 C 1.742188 -16.832031 1.65625 -17.066406 1.65625 -17.359375 C 1.65625 -17.640625 1.742188 -17.867188 1.921875 -18.046875 C 2.109375 -18.234375 2.332031 -18.328125 2.59375 -18.328125 C 2.851562 -18.328125 3.070312 -18.234375 3.25 -18.046875 C 3.4375 -17.867188 3.53125 -17.640625 3.53125 -17.359375 C 3.53125 -17.066406 3.4375 -16.832031 3.25 -16.65625 C 3.070312 -16.488281 2.851562 -16.40625 2.59375 -16.40625 Z M 3.140625 -13.40625 L 3.140625 0 L 2.03125 0 L 2.03125 -13.40625 Z M 3.140625 -13.40625 "/></g></g><g style="fill:#333333;fill-opacity:1;"><g transform="translate(194.11798, 106.899841)"><path style="stroke:none" d="M 1.328125 -6.71875 C 1.328125 -8.101562 1.601562 -9.3125 2.15625 -10.34375 C 2.707031 -11.382812 3.472656 -12.1875 4.453125 -12.75 C 5.429688 -13.3125 6.550781 -13.59375 7.8125 -13.59375 C 9.226562 -13.59375 10.425781 -13.242188 11.40625 -12.546875 C 12.394531 -11.859375 13.085938 -10.976562 13.484375 -9.90625 L 13.484375 -13.40625 L 14.59375 -13.40625 L 14.59375 0 L 13.484375 0 L 13.484375 -3.53125 C 13.085938 -2.445312 12.390625 -1.550781 11.390625 -0.84375 C 10.398438 -0.144531 9.207031 0.203125 7.8125 0.203125 C 6.550781 0.203125 5.429688 -0.078125 4.453125 -0.640625 C 3.472656 -1.210938 2.707031 -2.019531 2.15625 -3.0625 C 1.601562 -4.113281 1.328125 -5.332031 1.328125 -6.71875 Z M 13.484375 -6.71875 C 13.484375 -7.882812 13.238281 -8.914062 12.75 -9.8125 C 12.269531 -10.71875 11.609375 -11.410156 10.765625 -11.890625 C 9.929688 -12.378906 8.992188 -12.625 7.953125 -12.625 C 6.867188 -12.625 5.914062 -12.390625 5.09375 -11.921875 C 4.269531 -11.453125 3.625 -10.769531 3.15625 -9.875 C 2.695312 -8.988281 2.46875 -7.9375 2.46875 -6.71875 C 2.46875 -5.5 2.695312 -4.441406 3.15625 -3.546875 C 3.625 -2.660156 4.269531 -1.976562 5.09375 -1.5 C 5.925781 -1.03125 6.878906 -0.796875 7.953125 -0.796875 C 8.992188 -0.796875 9.9375 -1.035156 10.78125 -1.515625 C 11.632812 -2.003906 12.296875 -2.695312 12.765625 -3.59375 C 13.242188 -4.488281 13.484375 -5.53125 13.484375 -6.71875 Z M 13.484375 -6.71875 "/></g></g><g style="fill:#333333;fill-opacity:1;"><g transform="translate(209.805333, 106.899841)"><path style="stroke:none" d="M 8.078125 -13.6875 C 9.671875 -13.6875 10.96875 -13.195312 11.96875 -12.21875 C 12.976562 -11.238281 13.484375 -9.785156 13.484375 -7.859375 L 13.484375 0 L 12.40625 0 L 12.40625 -7.78125 C 12.40625 -9.375 12 -10.59375 11.1875 -11.4375 C 10.382812 -12.289062 9.289062 -12.71875 7.90625 -12.71875 C 6.457031 -12.71875 5.300781 -12.253906 4.4375 -11.328125 C 3.570312 -10.410156 3.140625 -9.046875 3.140625 -7.234375 L 3.140625 0 L 2.03125 0 L 2.03125 -13.40625 L 3.140625 -13.40625 L 3.140625 -10.578125 C 3.515625 -11.578125 4.140625 -12.34375 5.015625 -12.875 C 5.898438 -13.414062 6.921875 -13.6875 8.078125 -13.6875 Z M 8.078125 -13.6875 "/></g></g><g style="fill:#333333;fill-opacity:1;"><g transform="translate(224.257436, 106.899841)"><path style="stroke:none" d="M 1.328125 -6.71875 C 1.328125 -8.113281 1.601562 -9.332031 2.15625 -10.375 C 2.707031 -11.414062 3.472656 -12.210938 4.453125 -12.765625 C 5.429688 -13.316406 6.554688 -13.59375 7.828125 -13.59375 C 9.503906 -13.59375 10.882812 -13.171875 11.96875 -12.328125 C 13.050781 -11.484375 13.722656 -10.351562 13.984375 -8.9375 L 12.828125 -8.9375 C 12.609375 -10.09375 12.050781 -11 11.15625 -11.65625 C 10.257812 -12.3125 9.148438 -12.640625 7.828125 -12.640625 C 6.835938 -12.640625 5.9375 -12.421875 5.125 -11.984375 C 4.320312 -11.554688 3.675781 -10.890625 3.1875 -9.984375 C 2.707031 -9.085938 2.46875 -8 2.46875 -6.71875 C 2.46875 -5.414062 2.707031 -4.316406 3.1875 -3.421875 C 3.675781 -2.535156 4.320312 -1.867188 5.125 -1.421875 C 5.9375 -0.984375 6.835938 -0.765625 7.828125 -0.765625 C 9.148438 -0.765625 10.257812 -1.09375 11.15625 -1.75 C 12.050781 -2.40625 12.609375 -3.3125 12.828125 -4.46875 L 13.984375 -4.46875 C 13.722656 -3.070312 13.046875 -1.941406 11.953125 -1.078125 C 10.867188 -0.222656 9.492188 0.203125 7.828125 0.203125 C 6.554688 0.203125 5.429688 -0.078125 4.453125 -0.640625 C 3.472656 -1.203125 2.707031 -2.003906 2.15625 -3.046875 C 1.601562 -4.097656 1.328125 -5.320312 1.328125 -6.71875 Z M 1.328125 -6.71875 "/></g></g><g style="fill:#333333;fill-opacity:1;"><g transform="translate(238.660135, 106.899841)"><path style="stroke:none" d="M 14.109375 -7.609375 C 14.109375 -7.015625 14.09375 -6.570312 14.0625 -6.28125 L 2.46875 -6.28125 C 2.5 -5.070312 2.757812 -4.054688 3.25 -3.234375 C 3.75 -2.410156 4.398438 -1.789062 5.203125 -1.375 C 6.015625 -0.96875 6.898438 -0.765625 7.859375 -0.765625 C 9.171875 -0.765625 10.269531 -1.085938 11.15625 -1.734375 C 12.050781 -2.390625 12.613281 -3.273438 12.84375 -4.390625 L 14 -4.390625 C 13.738281 -3.023438 13.0625 -1.914062 11.96875 -1.0625 C 10.882812 -0.21875 9.515625 0.203125 7.859375 0.203125 C 6.609375 0.203125 5.488281 -0.078125 4.5 -0.640625 C 3.507812 -1.203125 2.734375 -2.003906 2.171875 -3.046875 C 1.609375 -4.097656 1.328125 -5.320312 1.328125 -6.71875 C 1.328125 -8.113281 1.601562 -9.332031 2.15625 -10.375 C 2.707031 -11.414062 3.476562 -12.210938 4.46875 -12.765625 C 5.457031 -13.316406 6.585938 -13.59375 7.859375 -13.59375 C 9.140625 -13.59375 10.253906 -13.316406 11.203125 -12.765625 C 12.148438 -12.210938 12.867188 -11.476562 13.359375 -10.5625 C 13.859375 -9.644531 14.109375 -8.660156 14.109375 -7.609375 Z M 13 -7.1875 C 13.039062 -8.375 12.828125 -9.378906 12.359375 -10.203125 C 11.890625 -11.023438 11.25 -11.632812 10.4375 -12.03125 C 9.632812 -12.4375 8.765625 -12.640625 7.828125 -12.640625 C 6.890625 -12.640625 6.019531 -12.4375 5.21875 -12.03125 C 4.425781 -11.632812 3.773438 -11.023438 3.265625 -10.203125 C 2.765625 -9.378906 2.5 -8.375 2.46875 -7.1875 Z M 13 -7.1875 "/></g></g><g style="fill:#333333;fill-opacity:1;"><g transform="translate(253.161642, 106.899841)"><path style="stroke:none" d=""/></g></g><g style="fill:#333333;fill-opacity:1;"><g transform="translate(259.189322, 106.899841)"><path style="stroke:none" d="M 3.140625 -10.640625 C 3.460938 -11.628906 4.046875 -12.382812 4.890625 -12.90625 C 5.734375 -13.425781 6.804688 -13.6875 8.109375 -13.6875 L 8.109375 -12.53125 L 7.734375 -12.53125 C 6.410156 -12.53125 5.3125 -12.15625 4.4375 -11.40625 C 3.570312 -10.65625 3.140625 -9.429688 3.140625 -7.734375 L 3.140625 0 L 2.03125 0 L 2.03125 -13.40625 L 3.140625 -13.40625 Z M 3.140625 -10.640625 "/></g></g><g style="fill:#333333;fill-opacity:1;"><g transform="translate(266.896948, 106.899841)"><path style="stroke:none" d="M 14.109375 -7.609375 C 14.109375 -7.015625 14.09375 -6.570312 14.0625 -6.28125 L 2.46875 -6.28125 C 2.5 -5.070312 2.757812 -4.054688 3.25 -3.234375 C 3.75 -2.410156 4.398438 -1.789062 5.203125 -1.375 C 6.015625 -0.96875 6.898438 -0.765625 7.859375 -0.765625 C 9.171875 -0.765625 10.269531 -1.085938 11.15625 -1.734375 C 12.050781 -2.390625 12.613281 -3.273438 12.84375 -4.390625 L 14 -4.390625 C 13.738281 -3.023438 13.0625 -1.914062 11.96875 -1.0625 C 10.882812 -0.21875 9.515625 0.203125 7.859375 0.203125 C 6.609375 0.203125 5.488281 -0.078125 4.5 -0.640625 C 3.507812 -1.203125 2.734375 -2.003906 2.171875 -3.046875 C 1.609375 -4.097656 1.328125 -5.320312 1.328125 -6.71875 C 1.328125 -8.113281 1.601562 -9.332031 2.15625 -10.375 C 2.707031 -11.414062 3.476562 -12.210938 4.46875 -12.765625 C 5.457031 -13.316406 6.585938 -13.59375 7.859375 -13.59375 C 9.140625 -13.59375 10.253906 -13.316406 11.203125 -12.765625 C 12.148438 -12.210938 12.867188 -11.476562 13.359375 -10.5625 C 13.859375 -9.644531 14.109375 -8.660156 14.109375 -7.609375 Z M 13 -7.1875 C 13.039062 -8.375 12.828125 -9.378906 12.359375 -10.203125 C 11.890625 -11.023438 11.25 -11.632812 10.4375 -12.03125 C 9.632812 -12.4375 8.765625 -12.640625 7.828125 -12.640625 C 6.890625 -12.640625 6.019531 -12.4375 5.21875 -12.03125 C 4.425781 -11.632812 3.773438 -11.023438 3.265625 -10.203125 C 2.765625 -9.378906 2.5 -8.375 2.46875 -7.1875 Z M 13 -7.1875 "/></g></g><g style="fill:#333333;fill-opacity:1;"><g transform="translate(281.398456, 106.899841)"><path style="stroke:none" d="M 3.140625 -9.875 C 3.515625 -10.96875 4.195312 -11.859375 5.1875 -12.546875 C 6.1875 -13.242188 7.394531 -13.59375 8.8125 -13.59375 C 10.070312 -13.59375 11.191406 -13.3125 12.171875 -12.75 C 13.148438 -12.1875 13.914062 -11.382812 14.46875 -10.34375 C 15.019531 -9.3125 15.296875 -8.101562 15.296875 -6.71875 C 15.296875 -5.332031 15.019531 -4.113281 14.46875 -3.0625 C 13.914062 -2.019531 13.148438 -1.210938 12.171875 -0.640625 C 11.191406 -0.078125 10.070312 0.203125 8.8125 0.203125 C 7.414062 0.203125 6.21875 -0.144531 5.21875 -0.84375 C 4.226562 -1.550781 3.535156 -2.441406 3.140625 -3.515625 L 3.140625 6.328125 L 2.03125 6.328125 L 2.03125 -13.40625 L 3.140625 -13.40625 Z M 14.15625 -6.71875 C 14.15625 -7.9375 13.921875 -8.988281 13.453125 -9.875 C 12.992188 -10.769531 12.347656 -11.453125 11.515625 -11.921875 C 10.691406 -12.390625 9.734375 -12.625 8.640625 -12.625 C 7.609375 -12.625 6.671875 -12.378906 5.828125 -11.890625 C 4.984375 -11.410156 4.320312 -10.71875 3.84375 -9.8125 C 3.375 -8.914062 3.140625 -7.882812 3.140625 -6.71875 C 3.140625 -5.53125 3.375 -4.488281 3.84375 -3.59375 C 4.320312 -2.695312 4.984375 -2.003906 5.828125 -1.515625 C 6.671875 -1.035156 7.609375 -0.796875 8.640625 -0.796875 C 9.734375 -0.796875 10.691406 -1.03125 11.515625 -1.5 C 12.347656 -1.976562 12.992188 -2.660156 13.453125 -3.546875 C 13.921875 -4.441406 14.15625 -5.5 14.15625 -6.71875 Z M 14.15625 -6.71875 "/></g></g><g style="fill:#333333;fill-opacity:1;"><g transform="translate(297.085808, 106.899841)"><path style="stroke:none" d="M 1.328125 -6.71875 C 1.328125 -8.101562 1.601562 -9.3125 2.15625 -10.34375 C 2.707031 -11.382812 3.472656 -12.1875 4.453125 -12.75 C 5.429688 -13.3125 6.550781 -13.59375 7.8125 -13.59375 C 9.226562 -13.59375 10.425781 -13.242188 11.40625 -12.546875 C 12.394531 -11.859375 13.085938 -10.976562 13.484375 -9.90625 L 13.484375 -13.40625 L 14.59375 -13.40625 L 14.59375 0 L 13.484375 0 L 13.484375 -3.53125 C 13.085938 -2.445312 12.390625 -1.550781 11.390625 -0.84375 C 10.398438 -0.144531 9.207031 0.203125 7.8125 0.203125 C 6.550781 0.203125 5.429688 -0.078125 4.453125 -0.640625 C 3.472656 -1.210938 2.707031 -2.019531 2.15625 -3.0625 C 1.601562 -4.113281 1.328125 -5.332031 1.328125 -6.71875 Z M 13.484375 -6.71875 C 13.484375 -7.882812 13.238281 -8.914062 12.75 -9.8125 C 12.269531 -10.71875 11.609375 -11.410156 10.765625 -11.890625 C 9.929688 -12.378906 8.992188 -12.625 7.953125 -12.625 C 6.867188 -12.625 5.914062 -12.390625 5.09375 -11.921875 C 4.269531 -11.453125 3.625 -10.769531 3.15625 -9.875 C 2.695312 -8.988281 2.46875 -7.9375 2.46875 -6.71875 C 2.46875 -5.5 2.695312 -4.441406 3.15625 -3.546875 C 3.625 -2.660156 4.269531 -1.976562 5.09375 -1.5 C 5.925781 -1.03125 6.878906 -0.796875 7.953125 -0.796875 C 8.992188 -0.796875 9.9375 -1.035156 10.78125 -1.515625 C 11.632812 -2.003906 12.296875 -2.695312 12.765625 -3.59375 C 13.242188 -4.488281 13.484375 -5.53125 13.484375 -6.71875 Z M 13.484375 -6.71875 "/></g></g><g style="fill:#333333;fill-opacity:1;"><g transform="translate(312.773161, 106.899841)"><path style="stroke:none" d="M 2.59375 -16.40625 C 2.332031 -16.40625 2.109375 -16.488281 1.921875 -16.65625 C 1.742188 -16.832031 1.65625 -17.066406 1.65625 -17.359375 C 1.65625 -17.640625 1.742188 -17.867188 1.921875 -18.046875 C 2.109375 -18.234375 2.332031 -18.328125 2.59375 -18.328125 C 2.851562 -18.328125 3.070312 -18.234375 3.25 -18.046875 C 3.4375 -17.867188 3.53125 -17.640625 3.53125 -17.359375 C 3.53125 -17.066406 3.4375 -16.832031 3.25 -16.65625 C 3.070312 -16.488281 2.851562 -16.40625 2.59375 -16.40625 Z M 3.140625 -13.40625 L 3.140625 0 L 2.03125 0 L 2.03125 -13.40625 Z M 3.140625 -13.40625 "/></g></g><g style="fill:#333333;fill-opacity:1;"><g transform="translate(317.022088, 106.899841)"><path style="stroke:none" d="M 3.140625 -10.640625 C 3.460938 -11.628906 4.046875 -12.382812 4.890625 -12.90625 C 5.734375 -13.425781 6.804688 -13.6875 8.109375 -13.6875 L 8.109375 -12.53125 L 7.734375 -12.53125 C 6.410156 -12.53125 5.3125 -12.15625 4.4375 -11.40625 C 3.570312 -10.65625 3.140625 -9.429688 3.140625 -7.734375 L 3.140625 0 L 2.03125 0 L 2.03125 -13.40625 L 3.140625 -13.40625 Z M 3.140625 -10.640625 "/></g></g></g></svg>